<?xml version="1.0" encoding="utf-8"?>
<!-- Generator: Adobe Illustrator 27.2.0, SVG Export Plug-In . SVG Version: 6.00 Build 0)  -->
<svg version="1.1" id="Capa_1" xmlns="http://www.w3.org/2000/svg" xmlns:xlink="http://www.w3.org/1999/xlink" x="0px" y="0px"
	 width="230px" height="61.4px" viewBox="0 0 230 61.4" style="enable-background:new 0 0 230 61.4;" xml:space="preserve">
<style type="text/css">
	.st0{clip-path:url(#SVGID_00000093162512792354552830000005706228599981435809_);}
	.st1{fill:#FFFFFF;}
	.st2{fill:#1D4389;}
	.st3{fill:#CCD619;}
</style>
<g>
	<defs>
		<rect id="SVGID_1_" width="230" height="61.4"/>
	</defs>
	<clipPath id="SVGID_00000122713854611671236280000016344005489999175597_">
		<use xlink:href="#SVGID_1_"  style="overflow:visible;"/>
	</clipPath>
	<g id="Grupo_215" style="clip-path:url(#SVGID_00000122713854611671236280000016344005489999175597_);">
		<path id="Trazado_90" class="st1" d="M20.1,32.4v13.7h-5.4V32.4c-0.4-3.7-3.1-4.6-5.6-3.8c-1.6,0.5-2.9,1.6-3.7,3v14.6H0V24.4h4.9
			v0v-0.1L5,24.9l0.4,2c3-3,6.8-4.2,10.8-2S20.1,32.4,20.1,32.4"/>
		<path id="Trazado_91" class="st1" d="M46.1,35c0,7.1-4.9,11.8-11.4,11.8c-3.5-0.1-7-0.8-10.4-2v-30h5.9v11.3
			c1.6-1.7,3.8-2.7,6.1-2.8C42.2,23.3,46.1,28.1,46.1,35 M40.5,35.1c0-3.9-2.1-6.8-5.8-6.8c-1.7,0.1-3.4,0.9-4.5,2.2v10.8
			c1.3,0.5,2.7,0.8,4.1,0.8C38,42,40.5,39.1,40.5,35.1"/>
		<path id="Trazado_92" class="st1" d="M65.3,40.9l1,4.4c-1.8,1-3.8,1.6-5.9,1.6c-6.4,0.1-11.8-5-11.9-11.4s5-11.8,11.4-11.9
			c0.1,0,0.3,0,0.4,0c2.1,0,4.1,0.6,5.9,1.6l-1,4.4c-1.5-0.8-3.2-1.1-4.9-1.1c-3.7,0.1-6.5,3.2-6.4,6.8c-0.1,3.7,2.8,6.7,6.4,6.8
			C62.2,42,63.8,41.6,65.3,40.9"/>
		<path id="Trazado_93" class="st1" d="M90.5,35c0,7.1-4.8,11.8-11.2,11.8C76.1,46.7,73,46.1,70,45V14.8h3.7v12
			c1.7-2.1,4.2-3.3,6.9-3.5C86.6,23.3,90.5,28.1,90.5,35 M86.9,35c0-5-2.7-8.6-7.2-8.6c-2.2,0-4.3,1.4-6,3.4v12.7
			c1.7,0.6,3.6,1,5.4,1.1C83.6,43.7,86.9,40.1,86.9,35"/>
		<path id="Trazado_94" class="st1" d="M111.3,32.2l0,13.8h-3.2l-0.5-2.8c-1.8,2.1-4.4,3.3-7.2,3.4c-4.3,0-7.2-2.6-7.2-6.4
			c0-4.1,2.6-6.5,7.4-6.5c2.4,0.1,4.7,0.5,7,1.2v-2.6c0-3-2.8-5.5-6.5-5.5c-1.9-0.1-3.8,0.4-5.5,1.3l-0.7-2.9c2-1.2,4.4-1.7,6.7-1.7
			C106.3,23.6,111.3,26.8,111.3,32.2 M107.5,37.8c-2-0.8-4.2-1.2-6.3-1.3c-3.6,0-4.4,1.8-4.4,3.4c0,2.4,1.6,3.7,4.4,3.7
			c2.5-0.2,4.8-1.5,6.3-3.5V37.8z"/>
		<path id="Trazado_95" class="st1" d="M134.6,33.4v12.8h-3.7V33.4c0-4.3-2-6.4-5.7-6.4c-2.3,0-4.3,1.2-5.9,3.5l0,15.7h-3.7v-22h3.2
			l0.5,2.9c1.7-2.1,4.3-3.3,7-3.4C131.3,23.7,134.6,26.4,134.6,33.4"/>
		<path id="Trazado_96" class="st1" d="M158,46h-5l-10.2-9.7h-0.3V46h-3.7V14.8h3.7v18.5h0.4l8.4-9.2h4.7l-10.3,10.7L158,46z"/>
		<path id="Trazado_97" class="st2" d="M199.3,0c-17,0-30.7,13.7-30.7,30.7s13.7,30.7,30.7,30.7S230,47.7,230,30.7c0,0,0,0,0,0
			C230,13.7,216.3,0,199.3,0"/>
		<path id="Trazado_98" class="st1" d="M199.3,0c-17,0-30.7,13.7-30.7,30.7s13.7,30.7,30.7,30.7S230,47.7,230,30.7c0,0,0,0,0,0
			C230,13.7,216.3,0,199.3,0 M215.4,37.7l2.2,4.7h6.8c-6.5,13.9-23,19.9-36.9,13.4c-5.9-2.8-10.6-7.5-13.4-13.4h6.8l2.2-4.7l0,0
			h-10.8c-0.4-1.6-0.7-3.1-0.8-4.7h13.8l0.1-0.3l2-4.5h-15.9c0.1-1.6,0.4-3.2,0.8-4.7h17.3l0.4-1l1.7-3.8h-17.7
			c4.6-9.6,14.3-15.8,25-15.8l0,0l0,0h0.1c10.7,0,20.4,6.1,25,15.8h-17.7l1.7,3.8l0.5,1H226c0.4,1.6,0.7,3.1,0.8,4.7H211l2,4.5
			l0.1,0.3h13.8c-0.1,1.6-0.4,3.2-0.8,4.7L215.4,37.7L215.4,37.7z"/>
		<path id="Trazado_99" class="st3" d="M213.1,32.9l-0.1-0.3l-2-4.5l-0.3-0.6l-1.9-4.1l-0.4-1l-1.7-3.8l-0.6-1.3l-6.8-14.5l0,0l0,0
			l-6.7,14.5l-0.6,1.3l-1.7,3.8l-0.4,1l-0.4,0.9l-1.6,3.3l-0.3,0.6l-2,4.5l-0.1,0.3l-1.1,2.1l-1.2,2.6l0,0l-2.2,4.7l-0.2,0.4
			l-2.5,5.4h42l-2.5-5.4l-0.2-0.4l-2.2-4.7l0,0l-1.3-2.6L213.1,32.9z"/>
	</g>
</g>
</svg>
